<?xml version="1.0" encoding="UTF-8" standalone="no"?>
<!DOCTYPE svg PUBLIC "-//W3C//DTD SVG 1.1//EN" "http://www.w3.org/Graphics/SVG/1.1/DTD/svg11.dtd">
<svg version="1.1" xmlns="http://www.w3.org/2000/svg" xmlns:xlink="http://www.w3.org/1999/xlink" preserveAspectRatio="xMidYMid meet" viewBox="0 0 640 640" width="1280" height="1280"><defs><text id="a2dNxxu2K8" x="243.94" y="308.06" font-size="160" font-family="Open Sans" font-weight="normal" font-style="normal" letter-spacing="0" alignment-baseline="before-edge" transform="matrix(0.9255499725894039 -0.3786254722542499 0.3786254722542499 0.9255499725894039 -282.41792236570615 -4.308470423978974)" style="line-height:100%" xml:space="preserve" dominant-baseline="text-before-edge"><tspan x="243.94" dy="0em" alignment-baseline="before-edge" dominant-baseline="text-before-edge" text-anchor="start">{</tspan></text><style id="opensansnormalnormal">
    @font-face {
    font-family: "Open Sans";
    font-weight: normal;
    }
    </style><path d="M522.46 343.33C516.26 308.3 457.55 283.84 346.32 269.95C235.09 256.06 172.16 265.33 157.54 297.76L522.46 343.33Z" id="gc37h63wx"></path><path d="M383.79 256.38C378.08 264.75 366.65 266.91 358.28 261.2C349.91 255.5 347.74 244.06 353.45 235.69C359.16 227.32 370.59 225.16 378.97 230.87C387.34 236.58 389.5 248.01 383.79 256.38Z" id="i333Ja2Uaf"></path><path d="M382.37 250.48C379.72 254.36 374.41 255.36 370.53 252.71C366.65 250.06 365.64 244.76 368.29 240.88C370.94 236.99 376.24 235.99 380.13 238.64C384.01 241.29 385.01 246.59 382.37 250.48Z" id="d542J0vepn"></path><path d="M530.91 365.44L532.47 377.47L582.38 369.17L582.38 395.94L529.35 403.73L530.91 503.04C531.02 512.7 527.57 519.76 520.55 524.22C513.53 528.68 502.95 530.55 488.81 529.81L177.09 529.81C162.07 530.63 150.91 528.8 143.6 524.34C136.3 519.88 132.84 512.78 133.24 503.04L138.93 404.83L81.68 395.94L81.68 366.53L138.93 377.47L138.93 365.44L530.91 365.44Z" id="bifYxQOdy"></path><path d="M458.99 321.21L482.39 316.54L417.53 294.7L458.99 321.21Z" id="a196xdus80"></path><path d="M518.93 510.37L515.63 377.44L449.96 376.85L518.93 510.37Z" id="asykNMQbM"></path><text id="c20zkc461e" x="243.94" y="308.06" font-size="125" font-family="Open Sans" font-weight="normal" font-style="normal" letter-spacing="0" alignment-baseline="before-edge" transform="matrix(0.908588328560886 0.41769276891386975 -0.41769276891386975 0.908588328560886 125.07521315958417 -310.7801443485404)" style="line-height:100%" xml:space="preserve" dominant-baseline="text-before-edge"><tspan x="243.94" dy="0em" alignment-baseline="before-edge" dominant-baseline="text-before-edge" text-anchor="start">)</tspan></text><text id="f17fuXd2v0" x="243.94" y="308.06" font-size="100" font-family="Open Sans" font-weight="normal" font-style="normal" letter-spacing="0" alignment-baseline="before-edge" transform="matrix(0.9979573155855082 0.06388424116608299 -0.06388424116608299 0.9979573155855082 -96.59531519586689 -305.3365646955883)" style="line-height:100%" xml:space="preserve" dominant-baseline="text-before-edge"><tspan x="243.94" dy="0em" alignment-baseline="before-edge" dominant-baseline="text-before-edge" text-anchor="start">[</tspan></text></defs><g><g><g id="g2GVfxcbOX"><use xlink:href="#a2dNxxu2K8" opacity="1" fill="#777777" fill-opacity="1"></use><g><use xlink:href="#a2dNxxu2K8" opacity="1" fill-opacity="0" stroke="#081318" stroke-width="0" stroke-opacity="1"></use></g></g><g><use xlink:href="#gc37h63wx" opacity="1" fill="#380030" fill-opacity="1"></use><g><use xlink:href="#gc37h63wx" opacity="1" fill-opacity="0" stroke="#000000" stroke-width="2" stroke-opacity="1"></use></g></g><g><use xlink:href="#i333Ja2Uaf" opacity="1" fill="#380030" fill-opacity="1"></use><g><use xlink:href="#i333Ja2Uaf" opacity="1" fill-opacity="0" stroke="#000000" stroke-width="2" stroke-opacity="1"></use></g></g><g><use xlink:href="#d542J0vepn" opacity="1" fill="#ffffff" fill-opacity="0.64"></use></g><g><use xlink:href="#bifYxQOdy" opacity="1" fill="#380030" fill-opacity="1"></use><g><use xlink:href="#bifYxQOdy" opacity="1" fill-opacity="0" stroke="#000000" stroke-width="2" stroke-opacity="1"></use></g></g><g><use xlink:href="#a196xdus80" opacity="1" fill="#ffffff" fill-opacity="0.74"></use><g><use xlink:href="#a196xdus80" opacity="1" fill-opacity="0" stroke="#000000" stroke-width="0" stroke-opacity="1"></use></g></g><g><use xlink:href="#asykNMQbM" opacity="1" fill="#ffffff" fill-opacity="0.74"></use><g><use xlink:href="#asykNMQbM" opacity="1" fill-opacity="0" stroke="#000000" stroke-width="0" stroke-opacity="1"></use></g></g><g id="ckMpXKqiH"><use xlink:href="#c20zkc461e" opacity="1" fill="#777777" fill-opacity="0.66"></use><g><use xlink:href="#c20zkc461e" opacity="1" fill-opacity="0" stroke="#081318" stroke-width="0" stroke-opacity="0.66"></use></g></g><g id="cTnprEdgC"><use xlink:href="#f17fuXd2v0" opacity="1" fill="#a2a2a2" fill-opacity="0.33"></use><g><use xlink:href="#f17fuXd2v0" opacity="1" fill-opacity="0" stroke="#777777" stroke-width="0" stroke-opacity="0.4"></use></g></g></g></g></svg>